<svg width="39" height="13" viewBox="0 0 39 13" fill="none" xmlns="http://www.w3.org/2000/svg">
<path d="M4.95993 6.30326L8.42168 9.74831L6.11385 12.045L0.344238 6.30326L2.65208 4.00657L6.11385 0.561523L8.42168 2.85822L4.95993 6.30326ZM12.6559 0.561523L10.348 2.85822L6.88628 6.30326L9.19412 8.59996L12.6559 5.15492L16.1176 8.59996L18.4255 6.30326L14.9637 2.85822L12.6559 0.561523ZM38.4236 6.30326L34.9619 2.85822L32.654 0.561523L30.3462 2.85822L26.8844 6.30326L29.1923 8.59996L32.654 5.15492L36.1158 8.59996L38.4236 6.30326ZM26.1183 0.561523L22.6565 4.00657L19.1948 0.561523L16.8869 2.85822L20.3487 6.30326L22.6565 8.59996L24.9644 6.30326L28.4261 2.85822L26.1183 0.561523Z" fill="white"/>
</svg>
