<svg width="77" height="42" viewBox="0 0 77 42" fill="none" xmlns="http://www.w3.org/2000/svg">
<path d="M2.162 4.2H4.43V12.152H9.344V14H2.162V4.2ZM17.1473 11.9H12.5973L11.7293 14H9.40525L13.7733 4.2H16.0133L20.3953 14H18.0153L17.1473 11.9ZM16.4333 10.178L14.8793 6.426L13.3253 10.178H16.4333ZM30.3008 4.2L26.0588 14H23.8188L19.5908 4.2H22.0408L25.0228 11.2L28.0468 4.2H30.3008ZM37.2449 11.9H32.6949L31.8269 14H29.5029L33.8709 4.2H36.1109L40.4929 14H38.1129L37.2449 11.9ZM36.5309 10.178L34.9769 6.426L33.4229 10.178H36.5309ZM55.3977 4.2L52.0937 14H51.0017L48.1317 5.642L45.2477 14H44.1697L40.8657 4.2H41.9297L44.7577 12.628L47.6837 4.2H48.6497L51.5337 12.67L54.4037 4.2H55.3977ZM64.2272 13.104V14H57.2972V4.2H64.0172V5.096H58.3332V8.582H63.4012V9.464H58.3332V13.104H64.2272ZM72.8364 8.946C73.4804 9.086 73.9751 9.366 74.3204 9.786C74.6751 10.1967 74.8524 10.7287 74.8524 11.382C74.8524 12.222 74.5397 12.8707 73.9144 13.328C73.2984 13.776 72.3837 14 71.1704 14H66.6624V4.2H70.8904C71.9824 4.2 72.8271 4.41933 73.4244 4.858C74.0311 5.29667 74.3344 5.91733 74.3344 6.72C74.3344 7.26133 74.1991 7.72333 73.9284 8.106C73.6671 8.47933 73.3031 8.75933 72.8364 8.946ZM67.6984 5.054V8.61H70.8204C71.6137 8.61 72.2251 8.46067 72.6544 8.162C73.0837 7.854 73.2984 7.41067 73.2984 6.832C73.2984 6.25333 73.0837 5.81467 72.6544 5.516C72.2251 5.208 71.6137 5.054 70.8204 5.054H67.6984ZM71.1564 13.146C72.0337 13.146 72.6964 12.9967 73.1444 12.698C73.5924 12.3993 73.8164 11.9327 73.8164 11.298C73.8164 10.0753 72.9297 9.464 71.1564 9.464H67.6984V13.146H71.1564Z" fill="white"/>
<path d="M9.33353 30.5L16.3353 37.4006L11.6685 42L4.66677 35.0994L0 30.5L4.66677 25.9006L11.6685 19L16.3353 23.5994L9.33353 30.5ZM29.5643 23.6026L24.8976 19.0032L20.2308 23.6026L13.229 30.5032L17.8958 35.1026L24.8976 28.2019L31.8993 35.1026L36.5661 30.5032L29.5643 23.6026ZM77 30.5032L69.9982 23.6026L65.3315 19.0032L60.6647 23.6026L53.6629 30.5032L58.3297 35.1026L65.3315 28.2019L72.3332 35.1026L77 30.5032ZM56.7822 23.6026L52.1155 19.0032L45.1137 25.9039L38.1119 19.0032L33.4452 23.6026L40.4469 30.5032L45.1137 35.1026L49.7805 30.5032L56.7822 23.6026Z" fill="url(#paint0_linear_84_155)"/>
<defs>
<linearGradient id="paint0_linear_84_155" x1="63" y1="3.99999" x2="9.50001" y2="57.5" gradientUnits="userSpaceOnUse">
<stop stop-color="#00D9D6"/>
<stop offset="1" stop-color="#00A9FF"/>
</linearGradient>
</defs>
</svg>
