<svg width="166" height="55" viewBox="0 0 166 55" fill="none" xmlns="http://www.w3.org/2000/svg">
<path d="M120.433 23.1364H135.1V29.7468L120.433 29.9534V23.1364Z" fill="white"/>
<path d="M142.95 13.0142L165.88 0V6.61041L142.95 19.8312V13.0142Z" fill="#FF5000"/>
<path d="M149.147 19.8312L165.88 10.3288V16.9392L149.147 26.6482V19.8312Z" fill="#FF5000"/>
<path d="M165.88 19.8312L149.147 29.3337V36.1507V43.1742H165.88V33.4652L161.955 31.3994L160.922 32.0191V36.7704H154.312V33.154L165.88 26.4416V19.8312Z" fill="white"/>
<path d="M2.40144 11.5095H11.8987L19.9552 31.1548H20.327L28.3834 11.5095H37.8807V43.2394H30.413V23.7491H30.1497L22.527 43.038H17.7551L10.1325 23.6406H9.86913V43.2394H2.40144V11.5095ZM42.6642 11.5095H52.1615L60.218 31.1548H60.5898L68.6462 11.5095H78.1435V43.2394H70.6758V23.7491H70.4125L62.7898 43.038H58.0179L50.3953 23.6406H50.1319V43.2394H42.6642V11.5095ZM102.309 43.2394L92.3314 30.0703H90.5961V43.2394H82.927V11.5095H90.5961V23.8265H91.8201L101.643 11.5095H111.233L99.0089 26.4914L111.868 43.2394H102.309Z" fill="white"/>
</svg>
