<svg width="13" height="22" viewBox="0 0 13 22" fill="none" xmlns="http://www.w3.org/2000/svg">
<path d="M0.293408 11.7081L10.2934 21.7081C10.3863 21.801 10.4966 21.8747 10.618 21.9249C10.7394 21.9752 10.8695 22.0011 11.0009 22.0011C11.1323 22.0011 11.2624 21.9752 11.3838 21.9249C11.5052 21.8747 11.6155 21.801 11.7084 21.7081C11.8013 21.6151 11.875 21.5048 11.9253 21.3835C11.9756 21.2621 12.0015 21.132 12.0015 21.0006C12.0015 20.8692 11.9756 20.7391 11.9253 20.6177C11.875 20.4963 11.8013 20.386 11.7084 20.2931L2.41466 11.0006L11.7084 1.70806C11.896 1.52042 12.0015 1.26592 12.0015 1.00056C12.0015 0.735192 11.896 0.480697 11.7084 0.293056C11.5208 0.105415 11.2663 1.97712e-09 11.0009 0C10.7355 -1.97712e-09 10.481 0.105415 10.2934 0.293056L0.293408 10.2931C0.200432 10.3859 0.126673 10.4962 0.0763483 10.6176C0.0260239 10.739 0.000123024 10.8691 0.000123024 11.0006C0.000123024 11.132 0.0260239 11.2621 0.0763483 11.3835C0.126673 11.5049 0.200432 11.6152 0.293408 11.7081Z" fill="white"/>
</svg>
