<svg width="9" height="11" viewBox="0 0 9 11" fill="none" xmlns="http://www.w3.org/2000/svg">
<path d="M8.14742 2.54912C7.75087 1.8623 7.16356 1.30529 6.45671 0.945655C5.74987 0.586016 4.95386 0.439195 4.16522 0.522999C3.37658 0.606803 2.6292 0.917632 2.01372 1.41779C1.39824 1.91794 0.941108 2.58594 0.697756 3.34076C0.454404 4.09557 0.435292 4.90479 0.642737 5.67025C0.850183 6.43572 1.27527 7.12455 1.86645 7.6532C2.45764 8.18186 3.18951 8.52762 3.97331 8.64856C4.75711 8.76951 5.55916 8.66043 6.2822 8.33456L7.52191 10.4818C7.57626 10.5759 7.66577 10.6446 7.77076 10.6728C7.87575 10.7009 7.98761 10.6862 8.08174 10.6318C8.17587 10.5775 8.24456 10.488 8.27269 10.383C8.30082 10.278 8.28609 10.1661 8.23174 10.072L6.99203 7.92474C7.81565 7.3305 8.38967 6.45197 8.60308 5.45903C8.8165 4.46609 8.65414 3.42929 8.14742 2.54912ZM6.23754 7.43756C5.67597 7.76178 5.03087 7.9122 4.38382 7.86979C3.73677 7.82738 3.11682 7.59405 2.60238 7.1993C2.08794 6.80456 1.7021 6.26612 1.49367 5.6521C1.28523 5.03807 1.26356 4.37602 1.43139 3.74967C1.59922 3.12333 1.94901 2.56081 2.43653 2.13327C2.92406 1.70572 3.52742 1.43234 4.17031 1.3477C4.8132 1.26306 5.46676 1.37097 6.04833 1.65776C6.6299 1.94456 7.11336 2.39738 7.43758 2.95894C7.87138 3.7122 7.98866 4.60678 7.76368 5.44641C7.53871 6.28603 6.98985 7.00212 6.23754 7.43756Z" fill="white"/>
</svg>
